<svg width="30" height="30" viewBox="0 0 30 30" fill="none" xmlns="http://www.w3.org/2000/svg">
<mask id="mask0_53576_19419" style="mask-type:alpha" maskUnits="userSpaceOnUse" x="0" y="0" width="30" height="30">
<rect y="30" width="30" height="30" transform="rotate(-90 0 30)" fill="#D9D9D9"/>
</mask>
<g mask="url(#mask0_53576_19419)">
<path d="M17.875 15.8749L14.625 19.1249C14.2292 19.5208 13.7762 19.6091 13.2662 19.3899C12.7554 19.1716 12.5 18.7812 12.5 18.2187V11.7812C12.5 11.2187 12.7554 10.8283 13.2662 10.6099C13.7762 10.3908 14.2292 10.4791 14.625 10.8749L17.875 14.1249C18 14.2499 18.0937 14.3853 18.1562 14.5312C18.2187 14.677 18.25 14.8333 18.25 14.9999C18.25 15.1666 18.2187 15.3228 18.1562 15.4687C18.0937 15.6145 18 15.7499 17.875 15.8749Z" fill="black"/>
</g>
</svg>
